# Tiled2Unity generated file. Do not modify by hand.
# Wavefront file for 'mapa1_mesh_0003.obj'

# Vertices (Count = 252)
v -36 -10 0
v -37 -10 0
v -37 -9 0
v -36 -9 0
v -37 -10 0
v -38 -10 0
v -38 -9 0
v -37 -9 0
v -45 -13 0
v -46 -13 0
v -46 -12 0
v -45 -12 0
v -46 -13 0
v -47 -13 0
v -47 -12 0
v -46 -12 0
v -47 -13 0
v -48 -13 0
v -48 -12 0
v -47 -12 0
v -33 -14 0
v -34 -14 0
v -34 -13 0
v -33 -13 0
v -34 -14 0
v -35 -14 0
v -35 -13 0
v -34 -13 0
v -35 -14 0
v -36 -14 0
v -36 -13 0
v -35 -13 0
v -20 -15 0
v -21 -15 0
v -21 -14 0
v -20 -14 0
v -21 -15 0
v -22 -15 0
v -22 -14 0
v -21 -14 0
v -22 -15 0
v -23 -15 0
v -23 -14 0
v -22 -14 0
v -23 -15 0
v -24 -15 0
v -24 -14 0
v -23 -14 0
v -20 -16 0
v -21 -16 0
v -21 -15 0
v -20 -15 0
v -21 -16 0
v -22 -16 0
v -22 -15 0
v -21 -15 0
v -22 -16 0
v -23 -16 0
v -23 -15 0
v -22 -15 0
v -23 -16 0
v -24 -16 0
v -24 -15 0
v -23 -15 0
v -13 -17 0
v -14 -17 0
v -14 -16 0
v -13 -16 0
v -14 -17 0
v -15 -17 0
v -15 -16 0
v -14 -16 0
v -15 -17 0
v -16 -17 0
v -16 -16 0
v -15 -16 0
v -16 -17 0
v -17 -17 0
v -17 -16 0
v -16 -16 0
v -13 -18 0
v -14 -18 0
v -14 -17 0
v -13 -17 0
v -14 -18 0
v -15 -18 0
v -15 -17 0
v -14 -17 0
v -15 -18 0
v -16 -18 0
v -16 -17 0
v -15 -17 0
v -16 -18 0
v -17 -18 0
v -17 -17 0
v -16 -17 0
v -36 -23 0
v -37 -23 0
v -37 -22 0
v -36 -22 0
v -37 -23 0
v -38 -23 0
v -38 -22 0
v -37 -22 0
v -33 -24 0
v -34 -24 0
v -34 -23 0
v -33 -23 0
v -34 -24 0
v -35 -24 0
v -35 -23 0
v -34 -23 0
v -44 -28 0
v -45 -28 0
v -45 -27 0
v -44 -27 0
v -45 -28 0
v -46 -28 0
v -46 -27 0
v -45 -27 0
v -22 -33 0
v -23 -33 0
v -23 -32 0
v -22 -32 0
v -16 -36 0
v -17 -36 0
v -17 -35 0
v -16 -35 0
v -17 -36 0
v -18 -36 0
v -18 -35 0
v -17 -35 0
v -18 -36 0
v -19 -36 0
v -19 -35 0
v -18 -35 0
v -19 -36 0
v -20 -36 0
v -20 -35 0
v -19 -35 0
v -38 -36 0
v -39 -36 0
v -39 -35 0
v -38 -35 0
v -39 -36 0
v -40 -36 0
v -40 -35 0
v -39 -35 0
v -40 -36 0
v -41 -36 0
v -41 -35 0
v -40 -35 0
v -41 -36 0
v -42 -36 0
v -42 -35 0
v -41 -35 0
v -16 -37 0
v -17 -37 0
v -17 -36 0
v -16 -36 0
v -17 -37 0
v -18 -37 0
v -18 -36 0
v -17 -36 0
v -18 -37 0
v -19 -37 0
v -19 -36 0
v -18 -36 0
v -19 -37 0
v -20 -37 0
v -20 -36 0
v -19 -36 0
v -38 -37 0
v -39 -37 0
v -39 -36 0
v -38 -36 0
v -39 -37 0
v -40 -37 0
v -40 -36 0
v -39 -36 0
v -40 -37 0
v -41 -37 0
v -41 -36 0
v -40 -36 0
v -41 -37 0
v -42 -37 0
v -42 -36 0
v -41 -36 0
v -35 -39 0
v -36 -39 0
v -36 -38 0
v -35 -38 0
v -36 -39 0
v -37 -39 0
v -37 -38 0
v -36 -38 0
v -37 -39 0
v -38 -39 0
v -38 -38 0
v -37 -38 0
v -38 -39 0
v -39 -39 0
v -39 -38 0
v -38 -38 0
v -35 -40 0
v -36 -40 0
v -36 -39 0
v -35 -39 0
v -36 -40 0
v -37 -40 0
v -37 -39 0
v -36 -39 0
v -37 -40 0
v -38 -40 0
v -38 -39 0
v -37 -39 0
v -38 -40 0
v -39 -40 0
v -39 -39 0
v -38 -39 0
v -40 -42 0
v -41 -42 0
v -41 -41 0
v -40 -41 0
v -41 -42 0
v -42 -42 0
v -42 -41 0
v -41 -41 0
v -42 -42 0
v -43 -42 0
v -43 -41 0
v -42 -41 0
v -43 -42 0
v -44 -42 0
v -44 -41 0
v -43 -41 0
v -40 -43 0
v -41 -43 0
v -41 -42 0
v -40 -42 0
v -41 -43 0
v -42 -43 0
v -42 -42 0
v -41 -42 0
v -42 -43 0
v -43 -43 0
v -43 -42 0
v -42 -42 0
v -43 -43 0
v -44 -43 0
v -44 -42 0
v -43 -42 0

# Texture cooridinates (Count = 33)
vt 0.1875 0.625
vt 0.25 0.625
vt 0.25 0.6875
vt 0.1875 0.6875
vt 0.3125 0.625
vt 0.3125 0.6875
vt 0.375 0.625
vt 0.375 0.6875
vt 0.4375 0.625
vt 0.4375 0.6875
vt 0.5 0.625
vt 0.5 0.6875
vt 0.25 0.375
vt 0.3125 0.375
vt 0.3125 0.4375
vt 0.25 0.4375
vt 0.375 0.375
vt 0.375 0.4375
vt 0.4375 0.375
vt 0.4375 0.4375
vt 0.5 0.375
vt 0.5 0.4375
vt 0.25 0.3125
vt 0.3125 0.3125
vt 0.375 0.3125
vt 0.4375 0.3125
vt 0.5 0.3125
vt 0.125 0.3125
vt 0.1875 0.3125
vt 0.1875 0.375
vt 0.125 0.375
vt 0.125 0.625
vt 0.125 0.6875

# Normal
vn 0 0 -1

# Mesh description
g mapa1_mesh_0003

# Faces
f 1/1/1 2/2/1 3/3/1 4/4/1
f 5/2/1 6/5/1 7/6/1 8/3/1
f 9/5/1 10/7/1 11/8/1 12/6/1
f 13/7/1 14/9/1 15/10/1 16/8/1
f 17/9/1 18/11/1 19/12/1 20/10/1
f 21/5/1 22/7/1 23/8/1 24/6/1
f 25/7/1 26/9/1 27/10/1 28/8/1
f 29/9/1 30/11/1 31/12/1 32/10/1
f 33/13/1 34/14/1 35/15/1 36/16/1
f 37/14/1 38/17/1 39/18/1 40/15/1
f 41/17/1 42/19/1 43/20/1 44/18/1
f 45/19/1 46/21/1 47/22/1 48/20/1
f 49/23/1 50/24/1 51/14/1 52/13/1
f 53/24/1 54/25/1 55/17/1 56/14/1
f 57/25/1 58/26/1 59/19/1 60/17/1
f 61/26/1 62/27/1 63/21/1 64/19/1
f 65/13/1 66/14/1 67/15/1 68/16/1
f 69/14/1 70/17/1 71/18/1 72/15/1
f 73/17/1 74/19/1 75/20/1 76/18/1
f 77/19/1 78/21/1 79/22/1 80/20/1
f 81/23/1 82/24/1 83/14/1 84/13/1
f 85/24/1 86/25/1 87/17/1 88/14/1
f 89/25/1 90/26/1 91/19/1 92/17/1
f 93/26/1 94/27/1 95/21/1 96/19/1
f 97/28/1 98/29/1 99/30/1 100/31/1
f 101/29/1 102/23/1 103/13/1 104/30/1
f 105/1/1 106/2/1 107/3/1 108/4/1
f 109/2/1 110/5/1 111/6/1 112/3/1
f 113/1/1 114/2/1 115/3/1 116/4/1
f 117/2/1 118/5/1 119/6/1 120/3/1
f 121/32/1 122/1/1 123/4/1 124/33/1
f 125/13/1 126/14/1 127/15/1 128/16/1
f 129/14/1 130/17/1 131/18/1 132/15/1
f 133/17/1 134/19/1 135/20/1 136/18/1
f 137/19/1 138/21/1 139/22/1 140/20/1
f 141/13/1 142/14/1 143/15/1 144/16/1
f 145/14/1 146/17/1 147/18/1 148/15/1
f 149/17/1 150/19/1 151/20/1 152/18/1
f 153/19/1 154/21/1 155/22/1 156/20/1
f 157/23/1 158/24/1 159/14/1 160/13/1
f 161/24/1 162/25/1 163/17/1 164/14/1
f 165/25/1 166/26/1 167/19/1 168/17/1
f 169/26/1 170/27/1 171/21/1 172/19/1
f 173/23/1 174/24/1 175/14/1 176/13/1
f 177/24/1 178/25/1 179/17/1 180/14/1
f 181/25/1 182/26/1 183/19/1 184/17/1
f 185/26/1 186/27/1 187/21/1 188/19/1
f 189/13/1 190/14/1 191/15/1 192/16/1
f 193/14/1 194/17/1 195/18/1 196/15/1
f 197/17/1 198/19/1 199/20/1 200/18/1
f 201/19/1 202/21/1 203/22/1 204/20/1
f 205/23/1 206/24/1 207/14/1 208/13/1
f 209/24/1 210/25/1 211/17/1 212/14/1
f 213/25/1 214/26/1 215/19/1 216/17/1
f 217/26/1 218/27/1 219/21/1 220/19/1
f 221/13/1 222/14/1 223/15/1 224/16/1
f 225/14/1 226/17/1 227/18/1 228/15/1
f 229/17/1 230/19/1 231/20/1 232/18/1
f 233/19/1 234/21/1 235/22/1 236/20/1
f 237/23/1 238/24/1 239/14/1 240/13/1
f 241/24/1 242/25/1 243/17/1 244/14/1
f 245/25/1 246/26/1 247/19/1 248/17/1
f 249/26/1 250/27/1 251/21/1 252/19/1

